<svg _ngcontent-ng-c3229594917="" xmlns="http://www.w3.org/2000/svg" xmlns:xlink="http://www.w3.org/1999/xlink" data-test="icon" class="svg"><defs><symbol _ngcontent-ng-c3702712826="" id="cu3-icon-v4IaSidebarForms" viewBox="0 0 24 24" fill="currentColor" style="color: inherit;"><path _ngcontent-ng-c3702712826="" d="M12 2.17c1.148 0 2.035.036 2.662.074l.197.022c.904.146 1.58.902 1.62 1.819v.2c-.01.184-.023.363-.037.53l-.04.47a1.888 1.888 0 0 1-1.54 1.694L14.69 7a30.93 30.93 0 0 1-2.69.102 33.92 33.92 0 0 1-2.192-.064L9.31 7a1.881 1.881 0 0 1-1.69-1.549l-.022-.167a26.334 26.334 0 0 1-.041-.47l-.036-.53a1.927 1.927 0 0 1 1.815-2.04A43.504 43.504 0 0 1 12 2.17Zm0 1.66c-.837 0-1.526.019-2.068.044l-.493.026a.27.27 0 0 0-.261.291l.034.496c.012.157.025.304.038.44l.009.05a.244.244 0 0 0 .06.108.212.212 0 0 0 .137.063l.46.035c.515.033 1.203.06 2.083.06 1.175 0 2.007-.048 2.544-.095l.078-.02a.205.205 0 0 0 .059-.043.256.256 0 0 0 .07-.158l.037-.44a22.6 22.6 0 0 0 .033-.496l-.002-.057a.264.264 0 0 0-.2-.225l-.057-.009a42.143 42.143 0 0 0-2.562-.07Z" style="color: inherit;"></path><path _ngcontent-ng-c3702712826="" d="M18.943 12.409c0-2.275-.063-4.01-.138-5.279l-.077-1.114a1.25 1.25 0 0 0-1.055-1.152l-.118-.015a50.98 50.98 0 0 0-1.11-.078c-.015.185-.029.357-.044.514a1.888 1.888 0 0 1-1.54 1.694L14.69 7a30.93 30.93 0 0 1-2.69.102 33.92 33.92 0 0 1-2.192-.064L9.31 7a1.886 1.886 0 0 1-1.713-1.715c-.015-.157-.03-.33-.044-.515l-.216.013-.893.065a1.25 1.25 0 0 0-1.158 1.049l-.014.118c-.105 1.285-.215 3.36-.215 6.393s.11 5.109.215 6.393l.014.117a1.252 1.252 0 0 0 1.159 1.05c1.203.099 3.055.2 5.554.2 2.5 0 4.352-.101 5.556-.2l.118-.014a1.25 1.25 0 0 0 1.055-1.153l.077-1.114c.075-1.268.138-3.004.138-5.28Zm1.659 0a91.72 91.72 0 0 1-.14 5.378l-.08 1.15a2.91 2.91 0 0 1-2.425 2.653l-.266.034c-1.25.102-3.147.206-5.692.206-1.909 0-3.453-.059-4.633-.131l-1.057-.075a2.911 2.911 0 0 1-2.658-2.418l-.034-.269c-.108-1.334-.22-3.455-.22-6.528 0-3.073.112-5.194.22-6.528l.034-.268a2.912 2.912 0 0 1 2.658-2.42l.923-.066c.339-.021.71-.042 1.112-.06h.099a.83.83 0 0 1 .762.938l-.018.096a.297.297 0 0 0-.01.09l.034.496c.012.157.026.305.04.44l.008.05a.244.244 0 0 0 .06.108.212.212 0 0 0 .137.063l.46.035c.515.033 1.203.06 2.083.06 1.175 0 2.007-.048 2.544-.095l.078-.02a.205.205 0 0 0 .059-.043.256.256 0 0 0 .07-.158l.037-.44a22.6 22.6 0 0 0 .033-.496l-.007-.09a.83.83 0 0 1 .841-1.034l1.114.06c.339.022.647.044.923.067l.266.034a2.909 2.909 0 0 1 2.425 2.653l.08 1.15c.077 1.304.14 3.073.14 5.378Z" style="color: inherit;"></path><path _ngcontent-ng-c3702712826="" d="M14.889 10.453c-.301-.184-.68-.095-.942.187l-.103.132c-.731 1.093-1.288 1.921-1.66 2.477l-.422.627-.106.158-.027.04-.006.01-.003.003a.17.17 0 0 1-.235.047l-.03-.026-.005-.006a20.74 20.74 0 0 1-.085-.092c-.06-.063-.145-.155-.25-.27l-.829-.927c-.326-.373-.836-.464-1.192-.206l-.068.057a5.01 5.01 0 0 0-.239.231l-.232.262c-.232.286-.196.707.062 1.025l.609.728c.59.686 1.117 1.243 1.542 1.668l.103.093c.529.428 1.275.345 1.704-.212l.564-.75a84.044 84.044 0 0 0 2.554-3.703l.066-.115c.116-.235.133-.49.031-.692l-.061-.097a2.652 2.652 0 0 0-.551-.523l-.19-.126Z" style="color: inherit;"></path></symbol></defs><use _ngcontent-ng-c3229594917="" href="#cu3-icon-v4IaSidebarForms"></use></svg>