<svg _ngcontent-ng-c3229594917="" xmlns="http://www.w3.org/2000/svg" xmlns:xlink="http://www.w3.org/1999/xlink" data-test="icon" class="svg ng-star-inserted"><defs><symbol _ngcontent-ng-c3702712826="" id="cu3-icon-filter" viewBox="0 0 24 24" fill="currentColor" style="color: inherit;"><path _ngcontent-ng-c3702712826="" fill-rule="evenodd" d="M2 6a1 1 0 0 1 1-1h18a1 1 0 1 1 0 2H3a1 1 0 0 1-1-1Zm4 6a1 1 0 0 1 1-1h10a1 1 0 1 1 0 2H7a1 1 0 0 1-1-1Zm3 6a1 1 0 0 1 1-1h4a1 1 0 1 1 0 2h-4a1 1 0 0 1-1-1Z" clip-rule="evenodd" style="color: inherit;"></path></symbol></defs><use _ngcontent-ng-c3229594917="" href="#cu3-icon-filter"></use></svg>