<svg _ngcontent-ng-c3229594917="" xmlns="http://www.w3.org/2000/svg" xmlns:xlink="http://www.w3.org/1999/xlink" data-test="icon" class="svg"><defs><symbol _ngcontent-ng-c3702712826="" id="cu3-icon-v4IaSidebarHome" viewBox="0 0 24 24" fill="currentColor" style="color: inherit;"><path _ngcontent-ng-c3702712826="" d="M20.17 14.448a90.31 90.31 0 0 0-.082-3.77l-.045-.936a2.146 2.146 0 0 0-.56-1.366l-.151-.145a27.1 27.1 0 0 0-5.907-3.846l-.555-.254a2.147 2.147 0 0 0-1.53-.08l-.21.08C8.503 5.297 6.428 6.786 5.16 7.82l-.493.412a2.08 2.08 0 0 0-.69 1.288l-.021.223a92.155 92.155 0 0 0-.128 4.706c0 1.447.042 2.847.087 3.948l.014.158a1.608 1.608 0 0 0 1.549 1.393l1.238.036c1.372.035 3.14.064 5.283.064 2.857 0 5.048-.05 6.521-.1l.159-.014a1.607 1.607 0 0 0 1.404-1.537l.033-.878c.031-.926.054-1.985.054-3.07Zm1.66 0a93.04 93.04 0 0 1-.056 3.126l-.033.89a3.266 3.266 0 0 1-3.003 3.13l-.16.01c-1.492.05-3.702.101-6.578.101-2.157 0-3.94-.028-5.325-.064l-1.253-.037a3.267 3.267 0 0 1-3.152-2.98l-.011-.16a99.247 99.247 0 0 1-.088-4.016c0-1.92.071-3.674.13-4.793l.014-.19c.095-.945.52-1.846 1.272-2.492l.523-.438c1.346-1.098 3.548-2.677 6.347-3.92l.186-.077a3.805 3.805 0 0 1 2.9.078l.59.27a28.764 28.764 0 0 1 6.28 4.087l.146.133c.707.679 1.09 1.599 1.14 2.549l.045.95c.045 1.056.085 2.403.085 3.843Z" style="color: inherit;"></path><path _ngcontent-ng-c3702712826="" d="M7.646 14.431a.83.83 0 0 1 1.102.393l-.001-.003.014.027c.018.03.05.082.099.148.098.133.26.32.501.513.472.374 1.291.796 2.639.796 1.348 0 2.171-.422 2.648-.798.244-.193.408-.382.507-.515a1.777 1.777 0 0 0 .117-.179l-.003.006v.003a.828.828 0 1 1 1.493.718v.002l-.002.003-.002.005-.005.011-.017.033a3.45 3.45 0 0 1-.25.388 4.415 4.415 0 0 1-.81.827c-.762.6-1.946 1.155-3.676 1.155-1.73 0-2.912-.554-3.67-1.157a4.372 4.372 0 0 1-.806-.83 3.391 3.391 0 0 1-.264-.42l-.005-.012-.003-.005-.001-.003c.004-.003.059-.03.749-.356l.087-.04-.837.394a.83.83 0 0 1 .396-1.104Z" style="color: inherit;"></path><path _ngcontent-ng-c3702712826="" d="M20.17 14.45a90.31 90.31 0 0 0-.082-3.771l-.045-.936a2.146 2.146 0 0 0-.56-1.365l-.151-.145a27.1 27.1 0 0 0-5.907-3.846l-.555-.254a2.147 2.147 0 0 0-1.53-.081l-.21.081C8.503 5.299 6.428 6.788 5.16 7.82l-.493.413a2.08 2.08 0 0 0-.69 1.288l-.021.222a92.158 92.158 0 0 0-.128 4.706c0 1.448.042 2.848.087 3.949l.014.158a1.608 1.608 0 0 0 1.549 1.392l1.238.037c1.372.035 3.14.064 5.283.064 2.857 0 5.048-.05 6.521-.1l.159-.014a1.607 1.607 0 0 0 1.404-1.537l.033-.878c.031-.926.054-1.985.054-3.07Zm1.66 0c0 1.107-.024 2.185-.056 3.125l-.033.891a3.266 3.266 0 0 1-3.003 3.13l-.16.01a194.41 194.41 0 0 1-6.578.101c-2.157 0-3.94-.029-5.325-.064l-1.253-.037a3.267 3.267 0 0 1-3.152-2.98l-.011-.16a99.251 99.251 0 0 1-.088-4.017c0-1.92.071-3.673.13-4.793l.014-.189c.095-.945.52-1.846 1.272-2.492l.523-.439C5.456 5.44 7.658 3.86 10.457 2.617l.186-.077a3.805 3.805 0 0 1 2.9.077l.59.27a28.763 28.763 0 0 1 6.28 4.088l.146.133c.707.679 1.09 1.598 1.14 2.548l.045.952c.045 1.055.085 2.401.085 3.841Z" style="color: inherit;"></path><path _ngcontent-ng-c3702712826="" d="M7.646 14.433a.83.83 0 0 1 1.102.393l-.001-.003.014.026c.018.03.05.083.099.149.098.133.26.32.501.512.472.375 1.291.797 2.639.797 1.348 0 2.171-.423 2.648-.799a2.73 2.73 0 0 0 .507-.514 1.777 1.777 0 0 0 .117-.179l-.003.006v.002a.828.828 0 1 1 1.492.719v.004l-.003.005-.005.012-.017.032a3.45 3.45 0 0 1-.25.388 4.415 4.415 0 0 1-.81.828c-.762.6-1.946 1.154-3.676 1.154-1.73 0-2.912-.554-3.67-1.156a4.37 4.37 0 0 1-.806-.83 3.392 3.392 0 0 1-.264-.42l-.005-.012-.003-.005-.001-.003c.004-.003.059-.03.749-.356l.087-.04-.836.394a.83.83 0 0 1 .395-1.104Z" style="color: inherit;"></path></symbol></defs><use _ngcontent-ng-c3229594917="" href="#cu3-icon-v4IaSidebarHome"></use></svg>